<?xml version="1.0" standalone="no"?>
<!DOCTYPE svg PUBLIC "-//W3C//DTD SVG 20010904//EN"
 "http://www.w3.org/TR/2001/REC-SVG-20010904/DTD/svg10.dtd">
<svg version="1.0" xmlns="http://www.w3.org/2000/svg"
 width="2048.000000pt" height="2048.000000pt" viewBox="0 0 2048.000000 2048.000000"
 preserveAspectRatio="xMidYMid meet">
<metadata>
Created by potrace 1.16, written by Peter Selinger 2001-2019
</metadata>
<g transform="translate(0.000000,2048.000000) scale(0.100000,-0.100000)"
fill="#000000" stroke="none">
<path d="M10264 14591 c-38 -58 -236 -358 -440 -666 -655 -988 -793 -1202
-1044 -1610 -719 -1170 -1067 -1920 -1169 -2521 -36 -209 -45 -356 -32 -544
47 -715 330 -1342 830 -1840 338 -336 743 -579 1177 -705 118 -34 355 -81 476
-94 240 -26 580 -8 831 45 247 52 429 117 676 239 285 142 485 287 721 524
166 167 247 264 365 441 355 530 527 1228 454 1840 -62 517 -271 1016 -802
1910 -153 258 -550 901 -598 970 -9 14 -81 126 -160 250 -78 124 -272 421
-429 660 -158 239 -400 609 -537 821 l-249 386 -70 -106z m-336 -1043 c-8 -13
-36 -61 -63 -108 -26 -47 -85 -150 -130 -230 -440 -772 -875 -1637 -1107
-2200 -207 -504 -330 -904 -380 -1235 -17 -119 -17 -521 0 -635 22 -143 79
-362 126 -487 133 -353 300 -609 575 -883 382 -380 853 -645 1401 -790 l115
-30 -230 5 c-236 4 -304 12 -495 58 -560 135 -1048 469 -1403 964 -354 492
-517 1143 -431 1728 85 582 359 1177 1122 2445 147 244 359 585 483 775 43 66
122 188 176 270 53 83 130 201 170 263 40 61 76 112 79 112 4 0 0 -10 -8 -22z
m14 -3112 c153 -39 291 -117 430 -245 l58 -53 76 71 c286 267 670 326 1019
158 194 -94 327 -227 426 -427 122 -248 118 -532 -11 -805 -124 -262 -351
-517 -1045 -1176 -154 -146 -321 -304 -371 -352 l-91 -86 -155 147 c-85 81
-276 262 -424 402 -724 686 -911 918 -1001 1246 -24 86 -27 117 -27 239 0 153
14 223 65 348 73 177 245 367 405 449 166 85 252 106 430 107 97 1 140 -4 216
-23z"/>
<path d="M9570 10122 c-146 -39 -293 -155 -361 -287 -60 -116 -73 -167 -73
-285 0 -118 16 -185 69 -290 97 -198 211 -329 670 -768 165 -157 357 -342 426
-410 l126 -123 134 128 c74 70 263 250 419 399 590 562 739 777 740 1063 0
165 -53 295 -170 412 -219 222 -543 241 -791 48 -95 -75 -249 -261 -303 -366
-9 -18 -20 -33 -24 -33 -4 0 -20 23 -35 51 -62 110 -204 278 -298 352 -53 42
-157 93 -231 113 -72 19 -218 17 -298 -4z"/>
</g>
</svg>
