<?xml version="1.0" encoding="UTF-8" standalone="no" ?>
<!DOCTYPE svg PUBLIC "-//W3C//DTD SVG 1.1//EN" "http://www.w3.org/Graphics/SVG/1.1/DTD/svg11.dtd">
<svg xmlns="http://www.w3.org/2000/svg" xmlns:xlink="http://www.w3.org/1999/xlink" version="1.1" width="1080" height="1080" viewBox="0 0 1080 1080" xml:space="preserve">
<desc>Created with Fabric.js 5.2.4</desc>
<defs>
</defs>
<g transform="matrix(1 0 0 1 540 540)" id="a52fb80f-8b2d-4f44-bf90-ef42d1f23895"  >
</g>
<g transform="matrix(1 0 0 1 540 540)" id="7cf08dea-62a6-47c6-ad1d-eeb1fea73555"  >
<rect style="stroke: none; stroke-width: 1; stroke-dasharray: none; stroke-linecap: butt; stroke-dashoffset: 0; stroke-linejoin: miter; stroke-miterlimit: 4; fill: rgb(255,255,255); fill-rule: nonzero; opacity: 1; visibility: hidden;" vector-effect="non-scaling-stroke"  x="-540" y="-540" rx="0" ry="0" width="1080" height="1080" />
</g>
<g transform="matrix(0.47 0 0 0.47 512.96 404.25)"  >
<g style="" vector-effect="non-scaling-stroke"   >
		<g transform="matrix(1.66 0 0 1.66 -199.52 24.85)"  >
<path style="stroke: none; stroke-width: 1; stroke-dasharray: none; stroke-linecap: butt; stroke-dashoffset: 0; stroke-linejoin: miter; stroke-miterlimit: 4; fill: rgb(228,198,161); fill-rule: nonzero; opacity: 1;" vector-effect="non-scaling-stroke"  transform=" translate(-120.7, -255.8)" d="M 215.9 371.8 L 215.9 463.8 L 143.9 463.8 L 143.9 399.8 C 143.9 397.40000000000003 143.1 395 140.70000000000002 393.40000000000003 L 39.9 307.8 L 25.5 65.4 C 25.5 60.60000000000001 27.1 56.60000000000001 30.3 52.60000000000001 C 33.5 49.400000000000006 37.5 47.80000000000001 42.3 47.80000000000001 C 51.099999999999994 47.80000000000001 57.5 54.20000000000001 59.099999999999994 62.20000000000001 L 87.89999999999999 264.6 C 87.89999999999999 267 89.49999999999999 268.6 91.1 269.40000000000003 L 215.9 371.8 z" stroke-linecap="round" />
</g>
		<g transform="matrix(1.66 0 0 1.66 197.31 25.35)"  >
<path style="stroke: none; stroke-width: 1; stroke-dasharray: none; stroke-linecap: butt; stroke-dashoffset: 0; stroke-linejoin: miter; stroke-miterlimit: 4; fill: rgb(228,198,161); fill-rule: nonzero; opacity: 1;" vector-effect="non-scaling-stroke"  transform=" translate(-359.1, -256.1)" d="M 449.5 53.4 C 452.7 56.6 454.3 61.4 454.3 66.2 L 439.90000000000003 307.8 L 338.30000000000007 393.4 C 336.70000000000005 395 335.9000000000001 397.4 335.9000000000001 399.79999999999995 L 335.9000000000001 463.79999999999995 L 263.9000000000001 463.79999999999995 L 263.9000000000001 371.79999999999995 L 388.7000000000001 270.19999999999993 C 390.3000000000001 268.5999999999999 391.1000000000001 266.99999999999994 391.9000000000001 265.3999999999999 L 420.7 63 C 421.5 55 428.7 48.6 437.5 48.6 C 442.3 47.8 446.3 49.4 449.5 53.4 z" stroke-linecap="round" />
</g>
		<g transform="matrix(1.66 0 0 1.66 198.01 24.77)"  >
<path style="stroke: none; stroke-width: 1; stroke-dasharray: none; stroke-linecap: butt; stroke-dashoffset: 0; stroke-linejoin: miter; stroke-miterlimit: 4; fill: rgb(66,33,11); fill-rule: nonzero; opacity: 1;" vector-effect="non-scaling-stroke"  transform=" translate(-359.56, -255.8)" d="M 247.9 367.8 C 247.9 365.40000000000003 248.70000000000002 363 251.1 361.40000000000003 L 376.7 259 L 405.5 59.80000000000001 C 407.9 43.80000000000001 421.5 31.80000000000001 438.3 31.80000000000001 C 447.1 31.80000000000001 455.90000000000003 35.80000000000001 462.3 42.20000000000001 C 468.7 48.60000000000001 471.90000000000003 57.400000000000006 471.1 67.00000000000001 L 455.90000000000003 312.6 C 455.90000000000003 315 454.3 316.6 453.50000000000006 318.20000000000005 L 351.9000000000001 403.80000000000007 L 351.9000000000001 471.80000000000007 C 351.9000000000001 475.80000000000007 347.9000000000001 479.80000000000007 343.9000000000001 479.80000000000007 L 255.9000000000001 479.80000000000007 C 251.9000000000001 479.80000000000007 247.9000000000001 475.80000000000007 247.9000000000001 471.80000000000007 L 247.9000000000001 367.8 z M 335.9 463.8 L 335.9 399.8 C 335.9 397.40000000000003 336.7 395 338.29999999999995 393.40000000000003 L 439.9 307.80000000000007 L 454.29999999999995 65.40000000000006 C 454.29999999999995 60.600000000000065 452.69999999999993 56.600000000000065 449.49999999999994 52.600000000000065 C 446.29999999999995 49.40000000000006 441.49999999999994 47.000000000000064 437.49999999999994 47.000000000000064 C 429.49999999999994 47.000000000000064 422.29999999999995 53.40000000000006 420.69999999999993 61.40000000000006 L 391.8999999999999 264.6 C 391.8999999999999 267 390.2999999999999 268.6 388.69999999999993 269.40000000000003 L 263.9 371.8 L 263.9 463.8 L 335.9 463.8 z" stroke-linecap="round" />
</g>
		<g transform="matrix(1.66 0 0 1.66 72.37 -163.85)"  >
<path style="stroke: none; stroke-width: 1; stroke-dasharray: none; stroke-linecap: butt; stroke-dashoffset: 0; stroke-linejoin: miter; stroke-miterlimit: 4; fill: rgb(233,69,69); fill-rule: nonzero; opacity: 1;" vector-effect="non-scaling-stroke"  transform=" translate(-283.9, -142.2)" d="M 239.9 20.6 C 269.5 57.4 327.9 137.4 327.9 175.79999999999998 C 327.9 223 290.29999999999995 262.2 243.09999999999997 263.79999999999995 C 276.7 261.4 303.9 222.99999999999994 303.9 175.79999999999995 C 303.9 137.4 261.5 56.6 239.9 20.6 z" stroke-linecap="round" />
</g>
		<g transform="matrix(1.66 0 0 1.66 -0.96 -163.85)"  >
<path style="stroke: none; stroke-width: 1; stroke-dasharray: none; stroke-linecap: butt; stroke-dashoffset: 0; stroke-linejoin: miter; stroke-miterlimit: 4; fill: rgb(238,86,86); fill-rule: nonzero; opacity: 1;" vector-effect="non-scaling-stroke"  transform=" translate(-239.9, -142.2)" d="M 175.9 175.8 C 175.9 137.4 218.3 56.60000000000001 239.9 20.600000000000023 C 261.5 57.40000000000002 303.9 137.40000000000003 303.9 175.8 C 303.9 223 276.7 261.4 243.09999999999997 263.8 C 242.29999999999995 263.8 240.69999999999996 263.8 239.89999999999998 263.8 C 239.1 263.8 237.49999999999997 263.8 236.7 263.8 C 203.1 261.4 175.9 223 175.9 175.8 z" stroke-linecap="round" />
</g>
		<g transform="matrix(1.66 0 0 1.66 -74.11 -163.85)"  >
<path style="stroke: none; stroke-width: 1; stroke-dasharray: none; stroke-linecap: butt; stroke-dashoffset: 0; stroke-linejoin: miter; stroke-miterlimit: 4; fill: rgb(233,69,69); fill-rule: nonzero; opacity: 1;" vector-effect="non-scaling-stroke"  transform=" translate(-195.9, -142.2)" d="M 239.9 20.6 C 218.3 57.4 175.9 137.4 175.9 175.79999999999998 C 175.9 223 203.1 261.4 236.7 263.79999999999995 C 189.5 262.19999999999993 151.89999999999998 222.99999999999994 151.89999999999998 175.79999999999995 C 151.9 137.4 210.3 56.6 239.9 20.6 z" stroke-linecap="round" />
</g>
		<g transform="matrix(1.66 0 0 1.66 -1.14 -167.77)"  >
<path style="stroke: none; stroke-width: 1; stroke-dasharray: none; stroke-linecap: butt; stroke-dashoffset: 0; stroke-linejoin: miter; stroke-miterlimit: 4; fill: rgb(66,33,11); fill-rule: nonzero; opacity: 1;" vector-effect="non-scaling-stroke"  transform=" translate(-239.9, -139.9)" d="M 246.3 3 C 250.3 7.8 343.9 120.6 343.9 175.8 C 343.9 233.4 297.5 279.8 239.89999999999998 279.8 C 182.29999999999995 279.8 135.89999999999998 233.4 135.89999999999998 175.8 C 135.89999999999998 120.60000000000001 229.49999999999997 7.800000000000011 233.49999999999997 3 C 236.7 -1 243.1 -1 246.3 3 z M 243.1 263.8 C 290.3 262.2 327.9 223 327.9 175.8 C 327.9 137.4 269.5 56.60000000000001 239.89999999999998 20.600000000000023 C 210.29999999999998 56.60000000000002 151.89999999999998 137.40000000000003 151.89999999999998 175.8 C 151.89999999999998 223 189.49999999999997 262.20000000000005 236.7 263.8 C 237.5 263.8 239.1 263.8 239.89999999999998 263.8 C 240.7 263.8 242.3 263.8 243.1 263.8 z" stroke-linecap="round" />
</g>
		<g transform="matrix(1.66 0 0 1.66 -199.7 25.43)"  >
<path style="stroke: none; stroke-width: 1; stroke-dasharray: none; stroke-linecap: butt; stroke-dashoffset: 0; stroke-linejoin: miter; stroke-miterlimit: 4; fill: rgb(66,33,11); fill-rule: nonzero; opacity: 1;" vector-effect="non-scaling-stroke"  transform=" translate(-120.64, -256.2)" d="M 39.9 307.8 L 141.5 393.4 C 143.1 395 144.7 397.4 144.7 399.79999999999995 L 144.7 463.79999999999995 L 216.7 463.79999999999995 L 216.7 371.79999999999995 L 91.1 270.2 C 89.5 268.59999999999997 88.69999999999999 267 87.89999999999999 265.4 L 59.1 62.2 C 57.5 54.2 51.1 47.800000000000004 42.3 47.800000000000004 C 37.5 47.800000000000004 33.5 49.400000000000006 30.299999999999997 53.400000000000006 C 27.099999999999998 56.60000000000001 25.499999999999996 61.400000000000006 25.499999999999996 66.2 L 39.9 307.8 z M 103.1 259.8 L 228.7 362.20000000000005 C 230.29999999999998 363.80000000000007 231.89999999999998 366.20000000000005 231.89999999999998 368.6 L 231.89999999999998 472.6 C 231.89999999999998 476.6 227.89999999999998 480.6 223.89999999999998 480.6 L 135.89999999999998 480.6 C 131.89999999999998 480.6 127.89999999999998 476.6 127.89999999999998 472.6 L 127.89999999999998 404.6 L 26.3 318.2 C 25.5 316.59999999999997 23.900000000000002 314.2 23.900000000000002 312.59999999999997 L 9.5 67 C 8.7 58.2 11.9 49.4 18.3 42.2 C 24.700000000000003 35.00000000000001 33.5 31.800000000000004 42.3 31.800000000000004 C 58.3 31.800000000000004 72.69999999999999 43.800000000000004 75.1 59.800000000000004 L 103.1 259.8 z" stroke-linecap="round" />
</g>
		<g transform="matrix(1.66 0 0 1.66 -239.36 24.83)"  >
<path style="stroke: none; stroke-width: 1; stroke-dasharray: none; stroke-linecap: butt; stroke-dashoffset: 0; stroke-linejoin: miter; stroke-miterlimit: 4; fill: rgb(204,153,102); fill-rule: nonzero; opacity: 1;" vector-effect="non-scaling-stroke"  transform=" translate(-96.7, -255.78)" d="M 63.1 302.2 C 58.300000000000004 298.2 55.9 292.59999999999997 55.1 286.2 L 39.9 79.8 C 39.9 63 51.9 62.199999999999996 59.099999999999994 63 L 59.099999999999994 62.2 C 58.3 56.6 55.099999999999994 51 49.49999999999999 49.400000000000006 C 42.29999999999999 46.2 35.099999999999994 47.800000000000004 30.299999999999994 53.400000000000006 C 27.099999999999994 56.60000000000001 25.499999999999993 61.400000000000006 25.499999999999993 66.2 L 39.89999999999999 307.8 L 141.5 393.4 C 143.1 395 143.9 397.4 143.9 399.79999999999995 L 143.9 463.79999999999995 L 167.9 463.79999999999995 L 167.9 421.4 C 167.9 407.79999999999995 162.3 395 151.9 385.4 L 63.1 302.2 z" stroke-linecap="round" />
</g>
		<g transform="matrix(1.66 0 0 1.66 237.37 24.97)"  >
<path style="stroke: none; stroke-width: 1; stroke-dasharray: none; stroke-linecap: butt; stroke-dashoffset: 0; stroke-linejoin: miter; stroke-miterlimit: 4; fill: rgb(204,153,102); fill-rule: nonzero; opacity: 1;" vector-effect="non-scaling-stroke"  transform=" translate(-383.1, -255.87)" d="M 416.7 302.2 C 421.5 298.2 423.9 292.59999999999997 424.7 286.2 L 439.9 79.79999999999998 C 439.9 62.999999999999986 427.9 62.19999999999998 420.7 62.999999999999986 L 420.7 62.19999999999999 C 421.5 56.59999999999999 424.7 50.999999999999986 430.3 49.39999999999999 C 437.5 46.19999999999999 444.7 48.599999999999994 449.5 53.39999999999999 C 452.7 56.599999999999994 454.3 61.39999999999999 454.3 66.19999999999999 L 439.90000000000003 307.79999999999995 L 338.30000000000007 393.4 C 336.70000000000005 395 335.9000000000001 397.4 335.9000000000001 399.79999999999995 L 335.9000000000001 463.79999999999995 L 311.9000000000001 463.79999999999995 L 311.9000000000001 421.4 C 311.9000000000001 407.79999999999995 317.5000000000001 395 327.9000000000001 385.4 L 416.7 302.2 z" stroke-linecap="round" />
</g>
</g>
</g>
<g transform="matrix(1 0 0 1 287.87 706.17)" style="" id="4fa48801-17df-42e2-a6ae-8941c52187a9"  >
		<text xml:space="preserve" font-family="Raleway" font-size="196" font-style="normal" font-weight="900" style="stroke: none; stroke-width: 1; stroke-dasharray: none; stroke-linecap: butt; stroke-dashoffset: 0; stroke-linejoin: miter; stroke-miterlimit: 4; fill: rgb(66,33,11); fill-rule: nonzero; opacity: 1; white-space: pre;" ><tspan x="-292.14" y="61.57" >Donor</tspan></text>
</g>
<g transform="matrix(1 0 0 1 813.48 705.99)" style="" id="e6883479-4f38-4156-9e0f-2c9592d4781b"  >
		<text xml:space="preserve" font-family="Raleway" font-size="200" font-style="normal" font-weight="900" style="stroke: none; stroke-width: 1; stroke-dasharray: none; stroke-linecap: butt; stroke-dashoffset: 0; stroke-linejoin: miter; stroke-miterlimit: 4; fill: rgb(255,60,60); fill-rule: nonzero; opacity: 1; white-space: pre;" ><tspan x="-237.5" y="62.83" >Flow</tspan></text>
</g>
</svg>